<svg data-v-0dd9719b="" version="1.0" xmlns="http://www.w3.org/2000/svg" xmlns:xlink="http://www.w3.org/1999/xlink" width="100%" height="100%" viewBox="0 0 340.000000 250.000000" preserveAspectRatio="xMidYMid meet" color-interpolation-filters="sRGB" style="margin: auto;"> <rect data-v-0dd9719b="" x="0" y="0" width="100%" height="100%" fill="#ffffff" fill-opacity="1" class="background"></rect> <rect data-v-0dd9719b="" x="0" y="0" width="100%" height="100%" fill="url(#watermark)" fill-opacity="1" class="watermarklayer"></rect> <g data-v-0dd9719b="" class="iconmbgsvg" transform="translate(74.90130637168885,86.3242301940918)"><g fill="#251f39" hollow-target="text"><g transform="translate(20.09869384765625,0)" mask="url(#d64cb978-474a-4c86-b21e-47bd2606ba1a)"><g><rect fill="#251f39" fill-opacity="0" stroke-width="2" x="0" y="0" width="150" height="26.52942112803099" class="image-rect"></rect> <svg filter="url(#colors9667627960)" x="0" y="0" width="150" height="26.52942112803099" filtersec="colorsf6435331016" class="image-svg-svg primary" style="overflow: visible;"><svg xmlns="http://www.w3.org/2000/svg" xmlns:xlink="http://www.w3.org/1999/xlink" xml:space="preserve" version="1.1" viewBox="0 0.00516510009765625 238 42.093360900878906" x="0px" y="0px" fill-rule="evenodd" clip-rule="evenodd"><defs></defs><g><path d="M238 2c-100,100 -129,-27 -238,40 90,-102 120,22 238,-40z"></path></g></svg></svg> <defs><filter id="colors9667627960"><feColorMatrix type="matrix" values="0 0 0 0 0.90625  0 0 0 0 0.2421875  0 0 0 0 0.1796875  0 0 0 1 0" class="icon-fecolormatrix"></feColorMatrix></filter> <filter id="colorsf6435331016"><feColorMatrix type="matrix" values="0 0 0 0 0.99609375  0 0 0 0 0.99609375  0 0 0 0 0.99609375  0 0 0 1 0" class="icon-fecolormatrix"></feColorMatrix></filter> <filter id="colorsb5104052803"><feColorMatrix type="matrix" values="0 0 0 0 0  0 0 0 0 0  0 0 0 0 0  0 0 0 1 0" class="icon-fecolormatrix"></feColorMatrix></filter></defs></g></g> <g transform="translate(0,32.17788505554199)"><g data-gra="path-name" fill-rule="" class="tp-name" transform="translate(0,0)"><g transform="scale(0.9199999999999999)"><g><path d="M3.24 0L8.52628288163978-29.98 18.98628288163978-29.98Q25.09628288163978-29.98 27.737131046557458-28.17 30.386215941668052-26.35 29.710883605554628-22.52L29.710883605554628-22.52Q29.266539614169297-20 27.660914318701145-18.21 26.04705229304008-16.43 23.845362263071678-15.91L23.845362263071678-15.91 23.810096866929985-15.71Q26.46961490120572-14.97 27.41633249438716-13.25 28.3630500875686-11.53 27.878150890620322-8.78L27.878150890620322-8.78Q27.158736809329785-4.7 23.68436840466489-2.35 20.2 0 14.91 0L14.91 0 3.24 0ZM15.54539848989689-23.85L14.598522603492432-18.48 17.03852260349243-18.48Q18.778522603492434-18.48 19.865478029602528-19.2 20.94067018590554-19.91 21.19105449851156-21.33L21.19105449851156-21.33Q21.63539848989689-23.85 17.82539848989689-23.85L17.82539848989689-23.85 15.54539848989689-23.85ZM16.242903607891236-12.55L13.552903607891235-12.55 12.442043629427905-6.25 15.292043629427905-6.25Q19.092043629427906-6.25 19.656289967694992-9.45L19.656289967694992-9.45Q19.92078043875769-10.95 19.041842023324463-11.75 18.172903607891236-12.55 16.242903607891236-12.55L16.242903607891236-12.55ZM58.8 0L49.94 0 49.45095763158157-5.62 39.71095763158157-5.62 37.2 0 28.3 0 43.38920538913188-30.11 54.19920538913188-30.11 58.8 0ZM42.56176878348578-12.26L48.941768783485784-12.26 48.521060798378514-17.19Q48.360237046740394-18.83 48.168687196582404-21.43 47.9789006162315-24.04 47.976386834624975-25.16L47.976386834624975-25.16Q47.603006774688176-24.12 46.639822020987864-21.72 45.676637267287546-19.32 42.56176878348578-12.26L42.56176878348578-12.26ZM62.04 0L67.32628288163978-29.98 77.78628288163978-29.98Q83.89628288163978-29.98 86.53713104655745-28.17 89.17621594166805-26.35 88.50088360555463-22.52L88.50088360555463-22.52Q88.0565396141693-20 86.45091431870114-18.21 84.84705229304008-16.43 82.64536226307168-15.91L82.64536226307168-15.91 82.61009686693-15.71Q85.26961490120571-14.97 86.21633249438716-13.25 87.16305008756859-11.53 86.67815089062032-8.78L86.67815089062032-8.78Q85.95873680932978-4.7 82.4743684046649-2.35 79 0 73.71 0L73.71 0 62.04 0ZM74.3453984898969-23.85L73.39852260349244-18.48 75.83852260349244-18.48Q77.57852260349243-18.48 78.65547802960252-19.2 79.74067018590554-19.91 79.99105449851156-21.33L79.99105449851156-21.33Q80.4353984898969-23.85 76.61539848989689-23.85L76.61539848989689-23.85 74.3453984898969-23.85ZM75.03290360789123-12.55L72.35290360789124-12.55 71.24204362942791-6.25 74.0920436294279-6.25Q77.88204362942791-6.25 78.446289967695-9.45L78.446289967695-9.45Q78.7107804387577-10.95 77.84184202332446-11.75 76.96290360789123-12.55 75.03290360789123-12.55L75.03290360789123-12.55ZM101.20628288163978-29.98L104.36729012596874-18.87 111.49628288163977-29.98 120.27628288163977-29.98 107.18478894409613-11.71 105.12 0 96.96 0 98.980707198919-11.46 92.38628288163977-29.98 101.20628288163978-29.98ZM137.87 0L118.23 0 123.51628288163978-29.98 131.6162828816398-29.98 127.48317845383336-6.54 139.02317845383337-6.54 137.87 0ZM173.3801945200482-15.03L173.3801945200482-15.03Q172.04539927608513-7.46 167.6424342419009-3.53 163.22770593790955 0.41 156.07770593790954 0.41L156.07770593790954 0.41Q149.01770593790954 0.41 145.95596078151507-3.55 142.89421562512055-7.51 144.22724759927655-15.07L144.22724759927655-15.07Q145.54793668478297-22.56 149.9844282585814-26.51 154.41915656257277-30.45 161.55915656257275-30.45L161.55915656257275-30.45Q168.70915656257276-30.45 171.71971806800266-26.54 174.71851630362548-22.62 173.3801945200482-15.03ZM152.7501945200482-15.03L152.7501945200482-15.03Q151.21791305769167-6.34 157.2679130576917-6.34L157.2679130576917-6.34Q160.33791305769168-6.34 162.19996298698655-8.45 164.0620129162814-10.56 164.8501945200482-15.03L164.8501945200482-15.03Q165.64190266342922-19.52 164.51100567195243-21.67 163.37834541066854-23.81 160.38834541066853-23.81L160.38834541066853-23.81Q154.29834541066853-23.81 152.7501945200482-15.03ZM209.97628288163978-29.98L204.69 0 194.07 0 186.8340258325628-21.12 186.65402583256278-21.12Q186.16591746863463-16.14 185.70217750937135-13.51L185.70217750937135-13.51 183.32 0 176.14 0 181.42628288163976-29.98 192.00628288163978-29.98 199.24339187348244-9.15 199.37339187348243-9.15Q199.8821530960918-13.68 200.36705229304008-16.43L200.36705229304008-16.43 202.75628288163978-29.98 209.97628288163978-29.98Z" transform="translate(-3.240000009536743, 30.450000762939453)"></path></g> <!----> <!----> <!----> <!----> <!----> <!----> <!----></g></g> <g data-gra="path-slogan" fill-rule="" class="tp-slogan" fill="#251F39" transform="translate(14.440093994140625,31.39120101928711)"><!----> <!----> <g transform="scale(1, 1)"><g transform="scale(1.3200000000000003)"><path d="M9.41-7.05L9.41-7.05L8.09-7.05Q7.60-9.08 5.30-9.13L5.30-9.13Q2.13-8.97 2.02-5.09L2.02-5.09Q2.02-0.93 5.36-0.93L5.36-0.93Q7.66-0.98 8.20-3.72L8.20-3.72L9.52-3.72Q8.91 0.05 5.09 0.16L5.09 0.16Q0.71 0 0.60-5.03L0.60-5.03Q0.82-10.06 5.30-10.28L5.30-10.28Q8.86-10.17 9.41-7.05ZM21.03-4.98L21.03-4.98Q20.81-8.91 17.53-9.13L17.53-9.13Q14.20-8.97 14.03-4.98L14.03-4.98Q14.20-1.09 17.53-0.93L17.53-0.93Q20.81-1.15 21.03-4.98ZM22.40-4.98L22.40-4.98Q22.07 0 17.53 0.16L17.53 0.16Q12.94 0 12.61-4.98L12.61-4.98Q12.88-10.17 17.53-10.28L17.53-10.28Q22.07-10.12 22.40-4.98ZM30.80-4.32L27.52-4.32L27.52 0L26.15 0L26.15-10.01L30.80-10.01Q34.13-10.01 34.13-7.33L34.13-7.33Q34.13-5.69 32.71-4.92L32.71-4.92Q33.91-4.59 33.91-3.01L33.91-3.01L34.02-1.20Q33.97-0.44 34.52-0.22L34.52-0.22L34.52 0L32.82 0Q32.66-0.71 32.60-2.52L32.60-2.52Q32.66-4.32 30.80-4.32L30.80-4.32ZM30.91-8.91L27.52-8.91L27.52-5.47L30.69-5.47Q32.71-5.47 32.71-7.22L32.71-7.22Q32.71-8.91 30.91-8.91L30.91-8.91ZM42.31-8.91L39.58-8.91L39.58-5.41L42.26-5.41Q44.34-5.41 44.34-7.22L44.34-7.22Q44.34-8.86 42.31-8.91L42.31-8.91ZM42.75-4.21L39.58-4.21L39.58 0L38.21 0L38.21-10.01L42.75-10.01Q45.59-9.90 45.70-7.22L45.70-7.22Q45.54-4.32 42.75-4.21L42.75-4.21ZM57.27-4.98L57.27-4.98Q57.05-8.91 53.77-9.13L53.77-9.13Q50.44-8.97 50.27-4.98L50.27-4.98Q50.44-1.09 53.77-0.93L53.77-0.93Q57.05-1.15 57.27-4.98ZM58.64-4.98L58.64-4.98Q58.31 0 53.77 0.16L53.77 0.16Q49.18 0 48.85-4.98L48.85-4.98Q49.13-10.17 53.77-10.28L53.77-10.28Q58.31-10.12 58.64-4.98ZM67.04-4.32L63.76-4.32L63.76 0L62.39 0L62.39-10.01L67.04-10.01Q70.38-10.01 70.38-7.33L70.38-7.33Q70.38-5.69 68.95-4.92L68.95-4.92Q70.16-4.59 70.16-3.01L70.16-3.01L70.27-1.20Q70.21-0.44 70.76-0.22L70.76-0.22L70.76 0L69.06 0Q68.90-0.71 68.84-2.52L68.84-2.52Q68.90-4.32 67.04-4.32L67.04-4.32ZM67.15-8.91L63.76-8.91L63.76-5.47L66.93-5.47Q68.95-5.47 68.95-7.22L68.95-7.22Q68.95-8.91 67.15-8.91L67.15-8.91ZM80.91 0L79.92-2.90L75.88-2.90L74.84 0L73.47 0L77.24-10.01L78.77-10.01L82.38 0L80.91 0ZM77.90-8.53L76.31-4.10L79.43-4.10L77.95-8.53L77.90-8.53ZM88.16-8.86L84.77-8.86L84.77-10.01L92.86-10.01L92.86-8.86L89.47-8.86L89.47 0L88.16 0L88.16-8.86ZM96.28-10.01L97.65-10.01L97.65 0L96.28 0L96.28-10.01ZM109.88-4.98L109.88-4.98Q109.66-8.91 106.38-9.13L106.38-9.13Q103.04-8.97 102.88-4.98L102.88-4.98Q103.04-1.09 106.38-0.93L106.38-0.93Q109.66-1.15 109.88-4.98ZM111.24-4.98L111.24-4.98Q110.91 0 106.38 0.16L106.38 0.16Q101.78 0 101.45-4.98L101.45-4.98Q101.73-10.17 106.38-10.28L106.38-10.28Q110.91-10.12 111.24-4.98ZM116.47-10.01L121.50-1.91L121.50-10.01L122.81-10.01L122.81 0L121.28 0L116.20-8.09L116.14-8.09L116.14 0L114.83 0L114.83-10.01L116.47-10.01Z" transform="translate(-0.6015625, 10.28125)"></path></g></g></g></g></g></g><mask id="d64cb978-474a-4c86-b21e-47bd2606ba1a"><g fill="white"><g><rect fill-opacity="1" stroke-width="2" x="0" y="0" width="150" height="26.52942112803099" class="image-rect"></rect> <svg x="0" y="0" width="150" height="26.52942112803099" class="image-svg-svg primary" style="overflow: visible;" filter="url(#colorsf6435331016)"><svg xmlns="http://www.w3.org/2000/svg" xmlns:xlink="http://www.w3.org/1999/xlink" xml:space="preserve" version="1.1" viewBox="0 0.00516510009765625 238 42.093360900878906" x="0px" y="0px" fill-rule="evenodd" clip-rule="evenodd"><defs></defs><g><path d="M238 2c-100,100 -129,-27 -238,40 90,-102 120,22 238,-40z"></path></g></svg></svg> <defs>  </defs></g></g> <g transform="translate(-20.09869384765625,32.17788505554199)" fill="black" stroke="black" stroke-width="6" stroke-linejoin="round"><g data-gra="path-name" fill-rule="" class="tp-name" transform="translate(0,0)"><g transform="scale(0.9199999999999999)"><g><path d="M3.24 0L8.52628288163978-29.98 18.98628288163978-29.98Q25.09628288163978-29.98 27.737131046557458-28.17 30.386215941668052-26.35 29.710883605554628-22.52L29.710883605554628-22.52Q29.266539614169297-20 27.660914318701145-18.21 26.04705229304008-16.43 23.845362263071678-15.91L23.845362263071678-15.91 23.810096866929985-15.71Q26.46961490120572-14.97 27.41633249438716-13.25 28.3630500875686-11.53 27.878150890620322-8.78L27.878150890620322-8.78Q27.158736809329785-4.7 23.68436840466489-2.35 20.2 0 14.91 0L14.91 0 3.24 0ZM15.54539848989689-23.85L14.598522603492432-18.48 17.03852260349243-18.48Q18.778522603492434-18.48 19.865478029602528-19.2 20.94067018590554-19.91 21.19105449851156-21.33L21.19105449851156-21.33Q21.63539848989689-23.85 17.82539848989689-23.85L17.82539848989689-23.85 15.54539848989689-23.85ZM16.242903607891236-12.55L13.552903607891235-12.55 12.442043629427905-6.25 15.292043629427905-6.25Q19.092043629427906-6.25 19.656289967694992-9.45L19.656289967694992-9.45Q19.92078043875769-10.95 19.041842023324463-11.75 18.172903607891236-12.55 16.242903607891236-12.55L16.242903607891236-12.55ZM58.8 0L49.94 0 49.45095763158157-5.62 39.71095763158157-5.62 37.2 0 28.3 0 43.38920538913188-30.11 54.19920538913188-30.11 58.8 0ZM42.56176878348578-12.26L48.941768783485784-12.26 48.521060798378514-17.19Q48.360237046740394-18.83 48.168687196582404-21.43 47.9789006162315-24.04 47.976386834624975-25.16L47.976386834624975-25.16Q47.603006774688176-24.12 46.639822020987864-21.72 45.676637267287546-19.32 42.56176878348578-12.26L42.56176878348578-12.26ZM62.04 0L67.32628288163978-29.98 77.78628288163978-29.98Q83.89628288163978-29.98 86.53713104655745-28.17 89.17621594166805-26.35 88.50088360555463-22.52L88.50088360555463-22.52Q88.0565396141693-20 86.45091431870114-18.21 84.84705229304008-16.43 82.64536226307168-15.91L82.64536226307168-15.91 82.61009686693-15.71Q85.26961490120571-14.97 86.21633249438716-13.25 87.16305008756859-11.53 86.67815089062032-8.78L86.67815089062032-8.78Q85.95873680932978-4.7 82.4743684046649-2.35 79 0 73.71 0L73.71 0 62.04 0ZM74.3453984898969-23.85L73.39852260349244-18.48 75.83852260349244-18.48Q77.57852260349243-18.48 78.65547802960252-19.2 79.74067018590554-19.91 79.99105449851156-21.33L79.99105449851156-21.33Q80.4353984898969-23.85 76.61539848989689-23.85L76.61539848989689-23.85 74.3453984898969-23.85ZM75.03290360789123-12.55L72.35290360789124-12.55 71.24204362942791-6.25 74.0920436294279-6.25Q77.88204362942791-6.25 78.446289967695-9.45L78.446289967695-9.45Q78.7107804387577-10.95 77.84184202332446-11.75 76.96290360789123-12.55 75.03290360789123-12.55L75.03290360789123-12.55ZM101.20628288163978-29.98L104.36729012596874-18.87 111.49628288163977-29.98 120.27628288163977-29.98 107.18478894409613-11.71 105.12 0 96.96 0 98.980707198919-11.46 92.38628288163977-29.98 101.20628288163978-29.98ZM137.87 0L118.23 0 123.51628288163978-29.98 131.6162828816398-29.98 127.48317845383336-6.54 139.02317845383337-6.54 137.87 0ZM173.3801945200482-15.03L173.3801945200482-15.03Q172.04539927608513-7.46 167.6424342419009-3.53 163.22770593790955 0.41 156.07770593790954 0.41L156.07770593790954 0.41Q149.01770593790954 0.41 145.95596078151507-3.55 142.89421562512055-7.51 144.22724759927655-15.07L144.22724759927655-15.07Q145.54793668478297-22.56 149.9844282585814-26.51 154.41915656257277-30.45 161.55915656257275-30.45L161.55915656257275-30.45Q168.70915656257276-30.45 171.71971806800266-26.54 174.71851630362548-22.62 173.3801945200482-15.03ZM152.7501945200482-15.03L152.7501945200482-15.03Q151.21791305769167-6.34 157.2679130576917-6.34L157.2679130576917-6.34Q160.33791305769168-6.34 162.19996298698655-8.45 164.0620129162814-10.56 164.8501945200482-15.03L164.8501945200482-15.03Q165.64190266342922-19.52 164.51100567195243-21.67 163.37834541066854-23.81 160.38834541066853-23.81L160.38834541066853-23.81Q154.29834541066853-23.81 152.7501945200482-15.03ZM209.97628288163978-29.98L204.69 0 194.07 0 186.8340258325628-21.12 186.65402583256278-21.12Q186.16591746863463-16.14 185.70217750937135-13.51L185.70217750937135-13.51 183.32 0 176.14 0 181.42628288163976-29.98 192.00628288163978-29.98 199.24339187348244-9.15 199.37339187348243-9.15Q199.8821530960918-13.68 200.36705229304008-16.43L200.36705229304008-16.43 202.75628288163978-29.98 209.97628288163978-29.98Z" transform="translate(-3.240000009536743, 30.450000762939453)"></path></g>       </g></g> <g data-gra="path-slogan" fill-rule="" class="tp-slogan" transform="translate(14.440093994140625,31.39120101928711)">  <g transform="scale(1, 1)"><g transform="scale(1.3200000000000003)"><path d="M9.41-7.05L9.41-7.05L8.09-7.05Q7.60-9.08 5.30-9.13L5.30-9.13Q2.13-8.97 2.02-5.09L2.02-5.09Q2.02-0.93 5.36-0.93L5.36-0.93Q7.66-0.98 8.20-3.72L8.20-3.72L9.52-3.72Q8.91 0.05 5.09 0.16L5.09 0.16Q0.71 0 0.60-5.03L0.60-5.03Q0.82-10.06 5.30-10.28L5.30-10.28Q8.86-10.17 9.41-7.05ZM21.03-4.98L21.03-4.98Q20.81-8.91 17.53-9.13L17.53-9.13Q14.20-8.97 14.03-4.98L14.03-4.98Q14.20-1.09 17.53-0.93L17.53-0.93Q20.81-1.15 21.03-4.98ZM22.40-4.98L22.40-4.98Q22.07 0 17.53 0.16L17.53 0.16Q12.94 0 12.61-4.98L12.61-4.98Q12.88-10.17 17.53-10.28L17.53-10.28Q22.07-10.12 22.40-4.98ZM30.80-4.32L27.52-4.32L27.52 0L26.15 0L26.15-10.01L30.80-10.01Q34.13-10.01 34.13-7.33L34.13-7.33Q34.13-5.69 32.71-4.92L32.71-4.92Q33.91-4.59 33.91-3.01L33.91-3.01L34.02-1.20Q33.97-0.44 34.52-0.22L34.52-0.22L34.52 0L32.82 0Q32.66-0.71 32.60-2.52L32.60-2.52Q32.66-4.32 30.80-4.32L30.80-4.32ZM30.91-8.91L27.52-8.91L27.52-5.47L30.69-5.47Q32.71-5.47 32.71-7.22L32.71-7.22Q32.71-8.91 30.91-8.91L30.91-8.91ZM42.31-8.91L39.58-8.91L39.58-5.41L42.26-5.41Q44.34-5.41 44.34-7.22L44.34-7.22Q44.34-8.86 42.31-8.91L42.31-8.91ZM42.75-4.21L39.58-4.21L39.58 0L38.21 0L38.21-10.01L42.75-10.01Q45.59-9.90 45.70-7.22L45.70-7.22Q45.54-4.32 42.75-4.21L42.75-4.21ZM57.27-4.98L57.27-4.98Q57.05-8.91 53.77-9.13L53.77-9.13Q50.44-8.97 50.27-4.98L50.27-4.98Q50.44-1.09 53.77-0.93L53.77-0.93Q57.05-1.15 57.27-4.98ZM58.64-4.98L58.64-4.98Q58.31 0 53.77 0.16L53.77 0.16Q49.18 0 48.85-4.98L48.85-4.98Q49.13-10.17 53.77-10.28L53.77-10.28Q58.31-10.12 58.64-4.98ZM67.04-4.32L63.76-4.32L63.76 0L62.39 0L62.39-10.01L67.04-10.01Q70.38-10.01 70.38-7.33L70.38-7.33Q70.38-5.69 68.95-4.92L68.95-4.92Q70.16-4.59 70.16-3.01L70.16-3.01L70.27-1.20Q70.21-0.44 70.76-0.22L70.76-0.22L70.76 0L69.06 0Q68.90-0.71 68.84-2.52L68.84-2.52Q68.90-4.32 67.04-4.32L67.04-4.32ZM67.15-8.91L63.76-8.91L63.76-5.47L66.93-5.47Q68.95-5.47 68.95-7.22L68.95-7.22Q68.95-8.91 67.15-8.91L67.15-8.91ZM80.91 0L79.92-2.90L75.88-2.90L74.84 0L73.47 0L77.24-10.01L78.77-10.01L82.38 0L80.91 0ZM77.90-8.53L76.31-4.10L79.43-4.10L77.95-8.53L77.90-8.53ZM88.16-8.86L84.77-8.86L84.77-10.01L92.86-10.01L92.86-8.86L89.47-8.86L89.47 0L88.16 0L88.16-8.86ZM96.28-10.01L97.65-10.01L97.65 0L96.28 0L96.28-10.01ZM109.88-4.98L109.88-4.98Q109.66-8.91 106.38-9.13L106.38-9.13Q103.04-8.97 102.88-4.98L102.88-4.98Q103.04-1.09 106.38-0.93L106.38-0.93Q109.66-1.15 109.88-4.98ZM111.24-4.98L111.24-4.98Q110.91 0 106.38 0.16L106.38 0.16Q101.78 0 101.45-4.98L101.45-4.98Q101.73-10.17 106.38-10.28L106.38-10.28Q110.91-10.12 111.24-4.98ZM116.47-10.01L121.50-1.91L121.50-10.01L122.81-10.01L122.81 0L121.28 0L116.20-8.09L116.14-8.09L116.14 0L114.83 0L114.83-10.01L116.47-10.01Z" transform="translate(-0.6015625, 10.28125)"></path></g></g></g></g></mask><defs v-gra="od"></defs></svg>